<svg xmlns="http://www.w3.org/2000/svg" x="0px" y="0px" viewBox="17.050801086425782 13.569400596618653 29.898397827148436 36.861097717285155" enable-background="new 0 0 64 64">
<g>
	
		<path fill="#FFFFFF" stroke="#000000" stroke-width="0.9" stroke-linecap="round" stroke-linejoin="round" stroke-miterlimit="10" d="   M40.5164,16.8201c3.3088,0,5.9828,2.6741,5.9828,5.9828v21.1948c0,3.3088-2.6741,5.9828-5.9828,5.9828H23.4836   c-3.3088,0-5.9828-2.6741-5.9828-5.9828V22.8029c0-3.3088,2.6741-5.9828,5.9828-5.9828H40.5164z"/>
	
		<path fill="#FFFFFF" stroke="#000000" stroke-width="0.9" stroke-linecap="round" stroke-linejoin="round" stroke-miterlimit="10" d="   M37.5908,16.8808L37.5908,16.8808c0-1.5803-1.2811-2.8614-2.8613-2.8614h-5.6577c-1.5803,0-2.8613,1.2811-2.8613,2.8613v0   c0,1.5803,1.2811,2.8613,2.8613,2.8613h5.6577C36.3098,19.7422,37.5908,18.4611,37.5908,16.8808z"/>
</g>
<g>
	
		<line fill="none" stroke="#FFF063FF" stroke-width="0.9" stroke-linecap="round" stroke-linejoin="round" stroke-miterlimit="10" x1="23.2273" y1="28.4563" x2="40.7123" y2="28.4563"/>
	
		<line fill="none" stroke="#FFF063FF" stroke-width="0.9" stroke-linecap="round" stroke-linejoin="round" stroke-miterlimit="10" x1="23.2273" y1="34.7643" x2="40.7123" y2="34.7643"/>
	
		<line fill="none" stroke="#FFF063FF" stroke-width="0.9" stroke-linecap="round" stroke-linejoin="round" stroke-miterlimit="10" x1="28.5" y1="40.8772" x2="35.5" y2="40.8772"/>
</g>
</svg>