<svg xmlns="http://www.w3.org/2000/svg" x="0px" y="0px" viewBox="6.537098217010498 11.254549789428712 34.92579116821289 25.490921401977538" enable-background="new 0 0 48 48">
<g>
	<g>
	</g>
	
		<path fill="#FFFFFF" stroke="#FFF063FF" stroke-width="0.9" stroke-linecap="round" stroke-linejoin="round" stroke-miterlimit="10" d="   M8.23389,27.35281c-1.6612-1.93112-1.66425-5.10483,0.00202-7.03157c3.09484-3.57862,8.65972-8.61669,15.46175-8.61669   c7.54899,0,13.13809,5.20269,16.10867,8.81462c1.60934,1.9568,1.60559,4.76803,0.00769,6.73419   c-2.9811,3.66813-8.48862,9.04211-15.16972,9.04211C17.22823,36.29546,11.40694,31.04142,8.23389,27.35281z"/>
</g>
<g>
	
		<circle fill="#FFFFFF" stroke="#000000" stroke-width="0.9" stroke-linecap="round" stroke-linejoin="round" stroke-miterlimit="10" cx="24.15133" cy="23.88442" r="12.12317"/>
</g>
<g>
	
		<path fill="#FFFFFF" stroke="#FFF063FF" stroke-width="0.9" stroke-linecap="round" stroke-linejoin="round" stroke-miterlimit="10" d="   M30.18212,23.88319c0,3.33206-2.69886,6.03092-6.03092,6.03092c-2.91402,0-5.34238-2.06563-5.90796-4.80753   c0.09219,0.00616,0.19058,0.00616,0.28893,0.00616c3.33206,0,6.03092-2.69886,6.03092-6.03092   c0-0.41804-0.04304-0.82993-0.12296-1.22339C27.63695,18.01212,30.18212,20.64948,30.18212,23.88319z"/>
</g>
</svg>