<svg xmlns="http://www.w3.org/2000/svg" x="0px" y="0px" viewBox="10.653376388549805 7.349869060516357 26.693249130249022 34.15012969970703" enable-background="new 0 0 48 48">
<g>
	
		<path fill="#FFFFFF" stroke="#FFF063FF" stroke-width="0.9" stroke-linecap="round" stroke-linejoin="round" stroke-miterlimit="10" d="   M36.818,25.657c-0.62-3.073-6,0-6,0s3.991-3.521,2.864-6.339c-1.063-2.656-4.792-0.475-4.792-0.475s3.322-3.155,1.837-5.025   c-1.227-1.545-3.633,0.403-3.633,0.403s-0.296-2.096-0.533-3.324c-0.743-3.852-3.902-4.398-5.122,0   c-0.334,1.205-0.533,3.324-0.533,3.324s-2.406-1.949-3.633-0.403c-1.485,1.87,1.837,5.025,1.837,5.025s-3.729-2.181-4.792,0.475   c-1.127,2.817,2.864,6.339,2.864,6.339s-5.38-3.073-6,0C9.932,31.854,24,36.041,24,36.041S38.068,31.854,36.818,25.657z"/>
	
		<path fill="#FFFFFF" stroke="#FFF063FF" stroke-width="0.9" stroke-linecap="round" stroke-linejoin="round" stroke-miterlimit="10" d="   M28.89,18.843"/>
</g>
<g>
	
		<line fill="none" stroke="#000000" stroke-width="0.9" stroke-linecap="round" stroke-linejoin="round" stroke-miterlimit="10" x1="24" y1="15.273" x2="24" y2="36.041"/>
	
		<line fill="none" stroke="#000000" stroke-width="0.9" stroke-linecap="round" stroke-linejoin="round" stroke-miterlimit="10" x1="20.318" y1="22.798" x2="24" y2="25.202"/>
	
		<line fill="none" stroke="#000000" stroke-width="0.9" stroke-linecap="round" stroke-linejoin="round" stroke-miterlimit="10" x1="24" y1="31.636" x2="27.636" y2="29.89"/>
	
		<line fill="none" stroke="#000000" stroke-width="0.9" stroke-linecap="round" stroke-linejoin="round" stroke-miterlimit="10" x1="24" y1="19" x2="25.818" y2="17.84"/>
</g>
<g>
	<path fill="none" stroke="#000000" stroke-width="0.9" stroke-linecap="round" stroke-linejoin="round" stroke-miterlimit="10" d="   M24,36.041v1.385c0,2.001-1.622,3.624-3.624,3.624H19.5"/>
</g>
</svg>