<svg xmlns="http://www.w3.org/2000/svg" x="0px" y="0px" viewBox="6.459088611602783 6.459088611602783 35.08181991577148 35.08181991577148" enable-background="new 0 0 48 48">
<g>
	<g>
		<path fill="none" stroke="#FFF063FF" stroke-width="0.9" stroke-linecap="round" stroke-linejoin="round" stroke-miterlimit="10" d="    M37.22202,34.95745c2.03862-2.4425,3.4151-5.48904,3.8277-8.89414"/>
		<path fill="none" stroke="#FFF063FF" stroke-width="0.9" stroke-linecap="round" stroke-linejoin="round" stroke-miterlimit="10" d="    M6.94916,21.93123c0.4114-3.39516,1.78668-6.43178,3.8265-8.88421"/>
		<path fill="none" stroke="#FFF063FF" stroke-width="0.9" stroke-linecap="round" stroke-linejoin="round" stroke-miterlimit="10" d="    M26.06985,6.95256c3.39516,0.4114,6.43178,1.78668,8.88421,3.8265"/>
		<path fill="none" stroke="#FFF063FF" stroke-width="0.9" stroke-linecap="round" stroke-linejoin="round" stroke-miterlimit="10" d="    M13.04483,37.21549c2.45243,2.03982,5.49897,3.4163,8.89414,3.8277"/>
	</g>
</g>
<g>
	
		<circle fill="#FFFFFF" stroke="#000000" stroke-width="0.9" stroke-linecap="round" stroke-linejoin="round" stroke-miterlimit="10" cx="24" cy="24" r="11.54545"/>
</g>
<g>
	<g>
		
			<path fill="#FFFFFF" stroke="#FFF063FF" stroke-width="0.9" stroke-linecap="round" stroke-linejoin="round" stroke-miterlimit="10" d="    M24,24c0,0-5.80329-4.2833-5.59756-9.38681c0.19829-4.91895,4.32041-9.5407,8.64082-6.96902    c3.4143,2.03232,2.67454,4.83474-0.3086,8.79171C24.58705,19.28456,24,24,24,24z"/>
		
			<path fill="#FFFFFF" stroke="#FFF063FF" stroke-width="0.9" stroke-linecap="round" stroke-linejoin="round" stroke-miterlimit="10" d="    M24,24c0,0,4.2833-5.80329,9.38681-5.59756c4.91895,0.19829,9.54069,4.32041,6.96902,8.64082    c-2.03232,3.4143-4.83474,2.67454-8.7917-0.3086C28.71544,24.58705,24,24,24,24z"/>
		
			<path fill="#FFFFFF" stroke="#FFF063FF" stroke-width="0.9" stroke-linecap="round" stroke-linejoin="round" stroke-miterlimit="10" d="    M24,24c0,0,5.80329,4.2833,5.59756,9.38681c-0.19829,4.91895-4.32041,9.54069-8.64082,6.96902    c-3.4143-2.03232-2.67454-4.83474,0.3086-8.7917C23.41295,28.71544,24,24,24,24z"/>
		
			<path fill="#FFFFFF" stroke="#FFF063FF" stroke-width="0.9" stroke-linecap="round" stroke-linejoin="round" stroke-miterlimit="10" d="    M24,24c0,0-4.2833,5.80329-9.38681,5.59756c-4.91895-0.19829-9.5407-4.32041-6.96902-8.64082    c2.03232-3.4143,4.83474-2.67454,8.79171,0.3086C19.28456,23.41295,24,24,24,24z"/>
	</g>
	
		<circle fill="#FFFFFF" stroke="#FFF063FF" stroke-width="0.9" stroke-linecap="round" stroke-linejoin="round" stroke-miterlimit="10" cx="24" cy="24" r="5.6029"/>
</g>
<g>
	
		<circle fill="none" stroke="#000000" stroke-width="0.9" stroke-linecap="round" stroke-linejoin="round" stroke-miterlimit="10" cx="24" cy="24" r="1.5"/>
</g>
</svg>